<svg version="1.1" xmlns="http://www.w3.org/2000/svg" xmlns:xlink="http://www.w3.org/1999/xlink" width="24px" height="24px" viewBox="0,0,256,256"><g fill="#ffffff" fill-rule="nonzero" stroke="none" stroke-width="1" stroke-linecap="butt" stroke-linejoin="miter" stroke-miterlimit="10" stroke-dasharray="" stroke-dashoffset="0" font-family="none" font-weight="none" font-size="none" text-anchor="none" style="mix-blend-mode: normal"><g transform="translate(0,-8) scale(10.66667,10.66667)"><path d="M12,5.5c1.933,0 3.5,1.567 3.5,3.5c0,1.933 -1.567,3.5 -3.5,3.5c-1.933,0 -3.5,-1.567 -3.5,-3.5c0,-1.933 1.567,-3.5 3.5,-3.5M5,8c0.56,0 1.08,0.15 1.53,0.42c-0.15,1.43 0.27,2.85 1.13,3.96c-0.5,0.96 -1.5,1.62 -2.66,1.62c-1.65685,0 -3,-1.34315 -3,-3c0,-1.65685 1.34315,-3 3,-3M19,8c1.65685,0 3,1.34315 3,3c0,1.65685 -1.34315,3 -3,3c-1.16,0 -2.16,-0.66 -2.66,-1.62c0.86,-1.11 1.28,-2.53 1.13,-3.96c0.45,-0.27 0.97,-0.42 1.53,-0.42M5.5,18.25c0,-2.07 2.91,-3.75 6.5,-3.75c3.59,0 6.5,1.68 6.5,3.75v1.75h-13v-1.75M0,20v-1.5c0,-1.39 1.89,-2.56 4.45,-2.9c-0.59,0.68 -0.95,1.62 -0.95,2.65v1.75h-3.5M24,20h-3.5v-1.75c0,-1.03 -0.36,-1.97 -0.95,-2.65c2.56,0.34 4.45,1.51 4.45,2.9z"></path></g></g></svg>