<svg version="1.1" xmlns="http://www.w3.org/2000/svg" xmlns:xlink="http://www.w3.org/1999/xlink" width="24px" height="24px" viewBox="0,0,256,256"><g fill="#ffffff" fill-rule="nonzero" stroke="none" stroke-width="1" stroke-linecap="butt" stroke-linejoin="miter" stroke-miterlimit="10" stroke-dasharray="" stroke-dashoffset="0" font-family="none" font-weight="none" font-size="none" text-anchor="none" style="mix-blend-mode: normal"><g transform="translate(0,5.33333) scale(10.66667,10.66667)"><path d="M12,17c1.10457,0 2,-0.89543 2,-2c0,-1.11 -0.9,-2 -2,-2c-1.10457,0 -2,0.89543 -2,2c0,1.10457 0.89543,2 2,2M18,8c1.10457,0 2,0.89543 2,2v10c0,1.10457 -0.89543,2 -2,2h-12c-1.10457,0 -2,-0.89543 -2,-2v-10c0,-1.11 0.9,-2 2,-2h1v-2c0,-2.76142 2.23858,-5 5,-5c2.76142,0 5,2.23858 5,5v2h1M12,3c-1.65685,0 -3,1.34315 -3,3v2h6v-2c0,-1.65685 -1.34315,-3 -3,-3z"></path></g></g></svg>