<svg version="1.1" xmlns="http://www.w3.org/2000/svg" xmlns:xlink="http://www.w3.org/1999/xlink" width="24px" height="24px" viewBox="0,0,256,256"><g fill="#ffffff" fill-rule="nonzero" stroke="none" stroke-width="1" stroke-linecap="butt" stroke-linejoin="miter" stroke-miterlimit="10" stroke-dasharray="" stroke-dashoffset="0" font-family="none" font-weight="none" font-size="none" text-anchor="none" style="mix-blend-mode: normal"><g transform="scale(10.66667,10.66667)"><path d="M4,2h16c1.10457,0 2,0.89543 2,2v12c0,1.10457 -0.89543,2 -2,2h-6.1l-3.7,3.71c-0.2,0.19 -0.45,0.29 -0.7,0.29v0h-0.5c-0.55228,0 -1,-0.44772 -1,-1v-3h-4c-1.10457,0 -2,-0.89543 -2,-2v-12c0,-1.11 0.9,-2 2,-2M12.19,5.5c-0.89,0 -1.6,0.18 -2.14,0.54c-0.55,0.36 -0.83,0.96 -0.78,1.65h1.97c0,-0.28 0.1,-0.49 0.26,-0.63c0.2,-0.14 0.42,-0.21 0.69,-0.21c0.31,0 0.58,0.08 0.76,0.26c0.18,0.17 0.27,0.39 0.27,0.69c0,0.28 -0.08,0.53 -0.22,0.74c-0.17,0.22 -0.38,0.4 -0.64,0.54c-0.52,0.32 -0.86,0.6 -1.07,0.84c-0.19,0.24 -0.29,0.58 -0.29,1.08h2c0,-0.28 0.05,-0.5 0.14,-0.68c0.09,-0.17 0.26,-0.32 0.52,-0.47c0.46,-0.21 0.84,-0.49 1.13,-0.85c0.29,-0.37 0.44,-0.76 0.44,-1.2c0,-0.7 -0.27,-1.26 -0.81,-1.68c-0.54,-0.41 -1.29,-0.62 -2.23,-0.62M11,12v2h2v-2z"></path></g></g></svg>